<svg width="507" height="89" viewBox="0 0 507 89" fill="none" xmlns="http://www.w3.org/2000/svg">
<mask id="mask0_101_29" style="mask-type:alpha" maskUnits="userSpaceOnUse" x="0" y="0" width="507" height="89">
<path d="M47.483 88.4949C38.5028 88.4949 30.4206 86.6427 23.2364 82.9383C16.0522 79.234 10.3834 74.1265 6.23004 67.6158C2.07668 60.9929 0 53.5281 0 45.2213C0 36.8024 2.07668 29.3375 6.23004 22.8269C10.4957 16.2039 16.2206 11.0403 23.4047 7.33596C30.7012 3.51936 38.8957 1.61106 47.9881 1.61106C54.4988 1.61106 60.336 2.62134 65.4996 4.64189C70.7755 6.66244 75.6585 9.7494 80.1486 13.9028L59.4379 34.6134C57.9787 33.2664 56.351 32.2561 54.5549 31.5826C52.7589 30.9091 50.57 30.5723 47.9881 30.5723C45.2941 30.5723 42.8245 31.1897 40.5795 32.4245C38.4466 33.547 36.7067 35.1747 35.3597 37.3075C34.0126 39.4403 33.3391 41.966 33.3391 44.8846C33.3391 47.8032 34.0126 50.385 35.3597 52.63C36.7067 54.7628 38.5028 56.4466 40.7478 57.6814C42.9929 58.9162 45.4063 59.5336 47.9881 59.5336C50.9067 59.5336 53.3202 59.0846 55.2285 58.1866C57.1368 57.2885 58.8206 56.0537 60.2798 54.4822L80.9905 75.1929C76.1636 79.683 71.1123 83.0506 65.8364 85.2957C60.5605 87.4285 54.4427 88.4949 47.483 88.4949Z" fill="#FC6471"/>
<path d="M129.969 88.4949C121.887 88.4949 114.703 86.9233 108.417 83.7802C102.243 80.6371 97.3597 76.2593 93.7676 70.6466C90.1755 65.034 88.3795 58.6356 88.3795 51.4514V3.63161H121.382V51.7881C121.382 53.4719 121.719 54.9873 122.392 56.3344C123.178 57.6814 124.188 58.7478 125.423 59.5336C126.77 60.2071 128.285 60.5439 129.969 60.5439C132.327 60.5439 134.291 59.7581 135.862 58.1866C137.546 56.5028 138.388 54.37 138.388 51.7881V3.63161H171.391V51.4514C171.391 58.7478 169.595 65.2024 166.002 70.815C162.523 76.3154 157.64 80.6371 151.353 83.7802C145.179 86.9233 138.051 88.4949 129.969 88.4949Z" fill="#FC6471"/>
<path d="M184.953 86.4743V3.63161H217.955V86.4743H184.953ZM217.955 41.6854L202.633 28.0466C206.898 19.0664 211.838 12.4996 217.45 8.34624C223.175 4.08062 230.303 1.94782 238.834 1.94782C242.651 1.94782 245.906 2.39683 248.6 3.29485C251.407 4.19288 253.652 5.48379 255.336 7.16758L236.814 33.4348C236.028 32.5368 234.849 31.8071 233.278 31.2458C231.819 30.5723 230.079 30.2356 228.058 30.2356C224.691 30.2356 222.165 31.2458 220.481 33.2664C218.797 35.1747 217.955 37.981 217.955 41.6854Z" fill="#FC6471"/>
<path d="M290.964 89C285.8 89 280.636 88.3265 275.473 86.9794C270.309 85.6324 265.482 83.7802 260.992 81.4229C256.614 79.0656 252.91 76.3715 249.879 73.3407L267.222 55.4925C269.916 58.1866 273.115 60.3194 276.82 61.8909C280.636 63.4624 284.621 64.2482 288.775 64.2482C290.683 64.2482 292.142 64.0237 293.153 63.5747C294.275 63.0134 294.836 62.2838 294.836 61.3858C294.836 59.8142 293.882 58.6356 291.974 57.8498C290.178 57.064 287.821 56.3344 284.902 55.6609C282.096 54.9873 279.065 54.1454 275.809 53.1352C272.666 52.0126 269.636 50.5534 266.717 48.7573C263.798 46.849 261.441 44.2672 259.645 41.0119C257.849 37.6443 256.951 33.3787 256.951 28.215C256.951 22.9391 258.41 18.2806 261.329 14.2395C264.36 10.0862 268.569 6.83082 273.957 4.47351C279.458 2.00395 285.8 0.769165 292.984 0.769165C300.281 0.769165 307.353 2.00395 314.2 4.47351C321.047 6.94307 326.492 10.6474 330.533 15.5866L313.021 33.4348C310.215 30.2917 307.128 28.215 303.76 27.2047C300.393 26.0822 297.587 25.5209 295.341 25.5209C293.209 25.5209 291.693 25.8577 290.795 26.5312C290.009 27.0925 289.617 27.8221 289.617 28.7202C289.617 29.9549 290.515 30.9652 292.311 31.751C294.107 32.5368 296.408 33.2664 299.214 33.9399C302.133 34.6134 305.164 35.5115 308.307 36.634C311.45 37.7565 314.425 39.3281 317.231 41.3486C320.149 43.3692 322.507 46.0632 324.303 49.4308C326.099 52.6862 326.997 56.9518 326.997 62.2277C326.997 70.4221 323.742 76.9328 317.231 81.7597C310.72 86.5866 301.964 89 290.964 89Z" fill="#FC6471"/>
<path d="M382.79 88.4949C373.136 88.4949 364.661 86.6988 357.364 83.1067C350.068 79.4024 344.343 74.2949 340.19 67.7842C336.149 61.1613 334.128 53.5842 334.128 45.053C334.128 36.634 336.092 29.1692 340.021 22.6585C344.062 16.1478 349.563 11.0403 356.522 7.33596C363.482 3.51936 371.34 1.61106 380.096 1.61106C388.739 1.61106 396.372 3.40711 402.995 6.9992C409.618 10.479 414.782 15.362 418.486 21.6482C422.303 27.9344 424.211 35.1186 424.211 43.2008C424.211 44.8846 424.099 46.6806 423.874 48.5889C423.762 50.385 423.425 52.5178 422.864 54.9873L348.103 55.4925V35.2869L410.572 34.7818L395.25 43.7059C395.25 39.2158 394.688 35.5676 393.566 32.7613C392.556 29.8427 390.984 27.6537 388.851 26.1945C386.718 24.7352 384.024 24.0055 380.769 24.0055C377.401 24.0055 374.483 24.8474 372.013 26.5312C369.544 28.215 367.635 30.6285 366.288 33.7715C365.054 36.9146 364.436 40.7312 364.436 45.2213C364.436 49.8237 365.11 53.6964 366.457 56.8395C367.916 59.8704 369.993 62.1715 372.687 63.7431C375.381 65.3146 378.749 66.1004 382.79 66.1004C386.718 66.1004 390.142 65.483 393.061 64.2482C396.092 62.9012 398.842 60.8245 401.311 58.0182L417.813 74.351C413.659 79.0656 408.664 82.6016 402.827 84.9589C396.99 87.3162 390.311 88.4949 382.79 88.4949Z" fill="#FC6471"/>
<path d="M467.071 89C461.908 89 456.744 88.3265 451.581 86.9794C446.417 85.6324 441.59 83.7802 437.1 81.4229C432.722 79.0656 429.018 76.3715 425.987 73.3407L443.33 55.4925C446.024 58.1866 449.223 60.3194 452.928 61.8909C456.744 63.4624 460.729 64.2482 464.882 64.2482C466.791 64.2482 468.25 64.0237 469.26 63.5747C470.383 63.0134 470.944 62.2838 470.944 61.3858C470.944 59.8142 469.99 58.6356 468.082 57.8498C466.286 57.064 463.928 56.3344 461.01 55.6609C458.203 54.9873 455.173 54.1454 451.917 53.1352C448.774 52.0126 445.743 50.5534 442.825 48.7573C439.906 46.849 437.549 44.2672 435.753 41.0119C433.957 37.6443 433.059 33.3787 433.059 28.215C433.059 22.9391 434.518 18.2806 437.437 14.2395C440.467 10.0862 444.677 6.83082 450.065 4.47351C455.566 2.00395 461.908 0.769165 469.092 0.769165C476.388 0.769165 483.46 2.00395 490.308 4.47351C497.155 6.94307 502.6 10.6474 506.641 15.5866L489.129 33.4348C486.323 30.2917 483.236 28.215 479.868 27.2047C476.501 26.0822 473.694 25.5209 471.449 25.5209C469.317 25.5209 467.801 25.8577 466.903 26.5312C466.117 27.0925 465.724 27.8221 465.724 28.7202C465.724 29.9549 466.622 30.9652 468.419 31.751C470.215 32.5368 472.516 33.2664 475.322 33.9399C478.241 34.6134 481.271 35.5115 484.415 36.634C487.558 37.7565 490.532 39.3281 493.339 41.3486C496.257 43.3692 498.615 46.0632 500.411 49.4308C502.207 52.6862 503.105 56.9518 503.105 62.2277C503.105 70.4221 499.849 76.9328 493.339 81.7597C486.828 86.5866 478.072 89 467.071 89Z" fill="#FC6471"/>
</mask>
<g mask="url(#mask0_101_29)">
<path d="M47.483 88.4949C38.5028 88.4949 30.4206 86.6427 23.2364 82.9383C16.0522 79.234 10.3834 74.1265 6.23004 67.6158C2.07668 60.9929 0 53.5281 0 45.2213C0 36.8024 2.07668 29.3375 6.23004 22.8269C10.4957 16.2039 16.2206 11.0403 23.4047 7.33596C30.7012 3.51936 38.8957 1.61106 47.9881 1.61106C54.4988 1.61106 60.336 2.62134 65.4996 4.64189C70.7755 6.66244 75.6585 9.7494 80.1486 13.9028L59.4379 34.6134C57.9787 33.2664 56.351 32.2561 54.5549 31.5826C52.7589 30.9091 50.57 30.5723 47.9881 30.5723C45.2941 30.5723 42.8245 31.1897 40.5795 32.4245C38.4466 33.547 36.7067 35.1747 35.3597 37.3075C34.0126 39.4403 33.3391 41.966 33.3391 44.8846C33.3391 47.8032 34.0126 50.385 35.3597 52.63C36.7067 54.7628 38.5028 56.4466 40.7478 57.6814C42.9929 58.9162 45.4063 59.5336 47.9881 59.5336C50.9067 59.5336 53.3202 59.0846 55.2285 58.1866C57.1368 57.2885 58.8206 56.0537 60.2798 54.4822L80.9905 75.1929C76.1636 79.683 71.1123 83.0506 65.8364 85.2957C60.5605 87.4285 54.4427 88.4949 47.483 88.4949Z" fill="#FC6471"/>
<path d="M129.969 88.4949C121.887 88.4949 114.703 86.9233 108.417 83.7802C102.243 80.6371 97.3597 76.2593 93.7676 70.6466C90.1755 65.034 88.3795 58.6356 88.3795 51.4514V3.63161H121.382V51.7881C121.382 53.4719 121.719 54.9873 122.392 56.3344C123.178 57.6814 124.188 58.7478 125.423 59.5336C126.77 60.2071 128.285 60.5439 129.969 60.5439C132.327 60.5439 134.291 59.7581 135.862 58.1866C137.546 56.5028 138.388 54.37 138.388 51.7881V3.63161H171.391V51.4514C171.391 58.7478 169.595 65.2024 166.002 70.815C162.523 76.3154 157.64 80.6371 151.353 83.7802C145.179 86.9233 138.051 88.4949 129.969 88.4949Z" fill="#FC6471"/>
<path d="M184.953 86.4743V3.63161H217.955V86.4743H184.953ZM217.955 41.6854L202.633 28.0466C206.898 19.0664 211.838 12.4996 217.45 8.34624C223.175 4.08062 230.303 1.94782 238.834 1.94782C242.651 1.94782 245.906 2.39683 248.6 3.29485C251.407 4.19288 253.652 5.48379 255.336 7.16758L236.814 33.4348C236.028 32.5368 234.849 31.8071 233.278 31.2458C231.819 30.5723 230.079 30.2356 228.058 30.2356C224.691 30.2356 222.165 31.2458 220.481 33.2664C218.797 35.1747 217.955 37.981 217.955 41.6854Z" fill="#FC6471"/>
<path d="M290.964 89C285.8 89 280.636 88.3265 275.473 86.9794C270.309 85.6324 265.482 83.7802 260.992 81.4229C256.614 79.0656 252.91 76.3715 249.879 73.3407L267.222 55.4925C269.916 58.1866 273.115 60.3194 276.82 61.8909C280.636 63.4624 284.621 64.2482 288.775 64.2482C290.683 64.2482 292.142 64.0237 293.153 63.5747C294.275 63.0134 294.836 62.2838 294.836 61.3858C294.836 59.8142 293.882 58.6356 291.974 57.8498C290.178 57.064 287.821 56.3344 284.902 55.6609C282.096 54.9873 279.065 54.1454 275.809 53.1352C272.666 52.0126 269.636 50.5534 266.717 48.7573C263.798 46.849 261.441 44.2672 259.645 41.0119C257.849 37.6443 256.951 33.3787 256.951 28.215C256.951 22.9391 258.41 18.2806 261.329 14.2395C264.36 10.0862 268.569 6.83082 273.957 4.47351C279.458 2.00395 285.8 0.769165 292.984 0.769165C300.281 0.769165 307.353 2.00395 314.2 4.47351C321.047 6.94307 326.492 10.6474 330.533 15.5866L313.021 33.4348C310.215 30.2917 307.128 28.215 303.76 27.2047C300.393 26.0822 297.587 25.5209 295.341 25.5209C293.209 25.5209 291.693 25.8577 290.795 26.5312C290.009 27.0925 289.617 27.8221 289.617 28.7202C289.617 29.9549 290.515 30.9652 292.311 31.751C294.107 32.5368 296.408 33.2664 299.214 33.9399C302.133 34.6134 305.164 35.5115 308.307 36.634C311.45 37.7565 314.425 39.3281 317.231 41.3486C320.149 43.3692 322.507 46.0632 324.303 49.4308C326.099 52.6862 326.997 56.9518 326.997 62.2277C326.997 70.4221 323.742 76.9328 317.231 81.7597C310.72 86.5866 301.964 89 290.964 89Z" fill="#FC6471"/>
<path d="M382.79 88.4949C373.136 88.4949 364.661 86.6988 357.364 83.1067C350.068 79.4024 344.343 74.2949 340.19 67.7842C336.149 61.1613 334.128 53.5842 334.128 45.053C334.128 36.634 336.092 29.1692 340.021 22.6585C344.062 16.1478 349.563 11.0403 356.522 7.33596C363.482 3.51936 371.34 1.61106 380.096 1.61106C388.739 1.61106 396.372 3.40711 402.995 6.9992C409.618 10.479 414.782 15.362 418.486 21.6482C422.303 27.9344 424.211 35.1186 424.211 43.2008C424.211 44.8846 424.099 46.6806 423.874 48.5889C423.762 50.385 423.425 52.5178 422.864 54.9873L348.103 55.4925V35.2869L410.572 34.7818L395.25 43.7059C395.25 39.2158 394.688 35.5676 393.566 32.7613C392.556 29.8427 390.984 27.6537 388.851 26.1945C386.718 24.7352 384.024 24.0055 380.769 24.0055C377.401 24.0055 374.483 24.8474 372.013 26.5312C369.544 28.215 367.635 30.6285 366.288 33.7715C365.054 36.9146 364.436 40.7312 364.436 45.2213C364.436 49.8237 365.11 53.6964 366.457 56.8395C367.916 59.8704 369.993 62.1715 372.687 63.7431C375.381 65.3146 378.749 66.1004 382.79 66.1004C386.718 66.1004 390.142 65.483 393.061 64.2482C396.092 62.9012 398.842 60.8245 401.311 58.0182L417.813 74.351C413.659 79.0656 408.664 82.6016 402.827 84.9589C396.99 87.3162 390.311 88.4949 382.79 88.4949Z" fill="#FC6471"/>
<path d="M467.071 89C461.908 89 456.744 88.3265 451.581 86.9794C446.417 85.6324 441.59 83.7802 437.1 81.4229C432.722 79.0656 429.018 76.3715 425.987 73.3407L443.33 55.4925C446.024 58.1866 449.223 60.3194 452.928 61.8909C456.744 63.4624 460.729 64.2482 464.882 64.2482C466.791 64.2482 468.25 64.0237 469.26 63.5747C470.383 63.0134 470.944 62.2838 470.944 61.3858C470.944 59.8142 469.99 58.6356 468.082 57.8498C466.286 57.064 463.928 56.3344 461.01 55.6609C458.203 54.9873 455.173 54.1454 451.917 53.1352C448.774 52.0126 445.743 50.5534 442.825 48.7573C439.906 46.849 437.549 44.2672 435.753 41.0119C433.957 37.6443 433.059 33.3787 433.059 28.215C433.059 22.9391 434.518 18.2806 437.437 14.2395C440.467 10.0862 444.677 6.83082 450.065 4.47351C455.566 2.00395 461.908 0.769165 469.092 0.769165C476.388 0.769165 483.46 2.00395 490.308 4.47351C497.155 6.94307 502.6 10.6474 506.641 15.5866L489.129 33.4348C486.323 30.2917 483.236 28.215 479.868 27.2047C476.501 26.0822 473.694 25.5209 471.449 25.5209C469.317 25.5209 467.801 25.8577 466.903 26.5312C466.117 27.0925 465.724 27.8221 465.724 28.7202C465.724 29.9549 466.622 30.9652 468.419 31.751C470.215 32.5368 472.516 33.2664 475.322 33.9399C478.241 34.6134 481.271 35.5115 484.415 36.634C487.558 37.7565 490.532 39.3281 493.339 41.3486C496.257 43.3692 498.615 46.0632 500.411 49.4308C502.207 52.6862 503.105 56.9518 503.105 62.2277C503.105 70.4221 499.849 76.9328 493.339 81.7597C486.828 86.5866 478.072 89 467.071 89Z" fill="#FC6471"/>
<path d="M-51.4684 -138.032H671.16V51.3953C671.16 51.3953 448.5 140 481 59.5C513.5 -21 481.518 32.1972 463.5 11C438 -19 466 83.5 368 26.5C344.862 13.0419 350 77 317.5 60C285 43 317.5 17.8824 285 11C252.5 4.11765 205.5 26 210 46.5C214.5 67 180.353 91 168.5 60C156.647 29 185 4.5 134.5 14.5C84 24.5 130.5 41 113.5 56C96.5 71 50 88 52 46.5C55.1816 -19.5172 14 65 6 22.5C-2 -20 -51.4684 51.3953 -51.4684 51.3953V-138.032Z" fill="#34F09F"/>
</g>
</svg>
